<?xml version="1.0" standalone="no"?>
<!DOCTYPE svg PUBLIC "-//W3C//DTD SVG 20010904//EN"
 "http://www.w3.org/TR/2001/REC-SVG-20010904/DTD/svg10.dtd">
<svg version="1.0" xmlns="http://www.w3.org/2000/svg"
 width="512.000000pt" height="512.000000pt" viewBox="0 0 512.000000 512.000000"
 preserveAspectRatio="xMidYMid meet">
<metadata>
Created by potrace 1.14, written by Peter Selinger 2001-2017
</metadata>
<g transform="translate(0.000000,512.000000) scale(0.100000,-0.100000)"
fill="#000000" stroke="none">
<path d="M2313 4995 c-6 -7 -30 -11 -57 -10 -25 2 -46 -1 -46 -5 0 -7 -56 -16
-137 -22 -18 -1 -33 -7 -33 -13 0 -5 -12 -11 -27 -12 -16 -1 -39 -4 -53 -6
-23 -4 -33 -7 -80 -25 -8 -3 -23 -6 -32 -7 -10 -2 -21 -4 -25 -5 -5 -2 -12 -4
-18 -5 -33 -8 -55 -18 -55 -25 0 -4 -18 -10 -40 -14 -22 -3 -40 -11 -40 -16 0
-6 -9 -10 -19 -10 -21 0 -84 -30 -89 -43 -2 -4 -8 -5 -12 -2 -11 7 -110 -44
-110 -56 0 -5 -3 -8 -7 -7 -8 2 -103 -42 -113 -52 -11 -11 -70 -50 -75 -50 -3
0 -15 -9 -27 -20 -12 -10 -25 -17 -30 -14 -4 3 -8 0 -8 -6 0 -6 -11 -15 -25
-20 -14 -5 -25 -14 -25 -20 0 -5 -7 -10 -15 -10 -8 0 -15 -5 -15 -11 0 -5 -4
-8 -8 -5 -5 3 -15 -6 -22 -19 -7 -14 -20 -25 -27 -25 -8 0 -39 -25 -70 -56
-30 -30 -57 -53 -60 -51 -5 6 -53 -40 -53 -51 -1 -4 -19 -20 -40 -37 -21 -16
-39 -36 -40 -44 0 -7 -20 -32 -45 -55 -25 -24 -45 -48 -45 -55 0 -15 -25 -41
-39 -41 -6 0 -13 -11 -17 -25 -3 -14 -15 -30 -25 -36 -11 -5 -19 -16 -19 -24
0 -8 -9 -19 -20 -25 -10 -6 -17 -16 -14 -24 3 -7 -2 -16 -10 -19 -9 -4 -16
-13 -16 -20 0 -8 -9 -22 -20 -32 -11 -10 -18 -20 -15 -23 2 -3 -5 -13 -16 -23
-11 -9 -21 -21 -21 -26 -3 -24 -11 -43 -20 -43 -5 0 -7 -4 -3 -10 3 -5 -3 -18
-15 -30 -11 -11 -20 -23 -20 -27 0 -5 -8 -17 -17 -28 -9 -11 -16 -21 -15 -22
6 -9 -12 -63 -21 -63 -6 0 -7 -3 -4 -6 4 -4 -3 -20 -14 -35 -11 -16 -17 -29
-13 -29 5 0 3 -5 -4 -12 -7 -7 -12 -20 -12 -30 0 -10 -4 -18 -9 -18 -6 0 -8
-9 -6 -20 2 -11 -1 -22 -6 -25 -5 -4 -7 -10 -4 -15 3 -5 -2 -15 -11 -24 -8 -9
-12 -20 -9 -26 3 -5 2 -10 -2 -10 -5 0 -10 -12 -11 -26 -1 -15 -7 -32 -12 -39
-6 -7 -8 -20 -4 -29 3 -9 2 -16 -4 -16 -9 0 -15 -21 -26 -85 -1 -11 -6 -27 -9
-35 -8 -23 -18 -80 -19 -122 -1 -21 -5 -38 -10 -38 -4 0 -8 -24 -8 -54 0 -30
-3 -57 -8 -60 -10 -6 -9 -502 1 -512 4 -4 7 -33 7 -65 0 -32 4 -60 9 -64 5 -3
8 -20 7 -38 -2 -17 -1 -36 3 -42 6 -11 12 -32 13 -52 1 -7 4 -13 7 -13 4 0 6
-12 5 -27 0 -15 7 -49 17 -77 10 -27 16 -53 13 -57 -3 -5 3 -20 12 -34 9 -14
13 -25 9 -25 -4 0 -3 -6 3 -12 6 -7 11 -16 11 -20 6 -41 15 -68 22 -68 5 0 8
-3 7 -7 0 -5 2 -16 5 -25 4 -10 10 -26 14 -35 3 -10 5 -21 5 -25 -1 -5 3 -8 8
-8 6 0 10 -8 10 -17 0 -19 60 -144 74 -154 5 -4 5 -12 2 -18 -4 -6 -2 -11 3
-11 6 0 11 -7 11 -15 0 -8 4 -15 10 -15 5 0 9 -3 8 -7 -2 -8 17 -41 53 -95 11
-15 19 -32 19 -38 0 -5 5 -10 10 -10 6 0 14 -8 17 -17 12 -31 64 -103 75 -103
5 0 8 -6 6 -12 -3 -7 6 -21 19 -31 13 -10 23 -22 23 -27 0 -5 18 -28 40 -51
22 -24 40 -46 40 -50 0 -8 208 -213 222 -218 6 -2 27 -20 46 -40 19 -20 38
-36 41 -36 3 0 20 -13 38 -28 17 -16 34 -28 38 -27 4 1 15 -9 26 -21 10 -12
19 -18 19 -14 0 5 11 -2 25 -15 14 -13 25 -20 25 -15 0 4 8 -2 19 -13 10 -12
21 -19 24 -15 4 3 9 -2 13 -11 3 -9 11 -16 18 -16 6 0 36 -16 65 -35 30 -19
58 -32 63 -29 4 3 8 0 8 -5 0 -6 7 -11 15 -11 8 0 15 -4 15 -10 0 -5 6 -7 14
-4 7 3 16 -2 20 -11 3 -9 10 -13 16 -10 5 3 10 1 10 -5 0 -7 7 -10 15 -6 8 3
15 1 15 -4 0 -6 7 -10 15 -10 8 0 15 -4 15 -10 0 -5 3 -9 8 -8 9 2 40 -9 75
-28 16 -7 37 -14 48 -14 10 0 19 -5 19 -11 0 -6 7 -8 16 -5 8 3 26 -2 40 -10
14 -9 32 -18 42 -19 9 -1 24 -4 32 -7 8 -4 29 -10 45 -14 17 -4 35 -8 40 -10
6 -2 30 -8 55 -14 25 -7 54 -14 65 -17 11 -3 41 -8 68 -10 26 -3 47 -8 47 -12
0 -4 17 -6 38 -6 20 1 43 -3 50 -8 7 -5 32 -7 56 -5 24 3 50 2 57 -3 7 -4 20
-4 29 1 10 6 26 4 41 -3 20 -11 224 -17 224 -7 0 2 20 4 45 6 25 2 56 5 70 7
14 1 37 -1 52 -4 18 -5 31 -3 38 6 8 9 26 13 51 10 21 -2 39 0 39 5 0 6 19 10
43 10 24 0 47 3 51 7 4 5 20 9 34 10 29 2 100 20 142 36 8 3 29 8 45 11 49 10
54 12 61 19 4 4 18 7 31 7 16 0 22 4 17 12 -5 8 -2 9 9 5 10 -3 17 -2 17 3 0
6 11 10 25 10 14 0 25 5 25 11 0 6 6 9 14 6 7 -3 27 3 44 13 16 10 33 16 36
13 3 -4 6 -2 6 4 0 10 36 26 53 24 4 -1 10 5 13 13 3 9 12 12 21 9 9 -4 21 0
27 8 11 16 45 33 59 31 4 -1 7 2 7 7 0 5 10 11 23 15 12 3 22 5 22 4 0 -1 10
7 23 17 12 11 24 18 26 15 1 -3 10 2 19 10 29 27 46 40 51 40 12 0 128 83 133
96 3 8 11 14 19 14 7 0 27 13 43 29 17 16 37 33 45 38 18 10 276 263 268 263
-3 0 3 7 14 15 10 8 15 15 11 15 -4 0 7 15 25 34 18 19 44 51 58 71 14 20 33
44 43 53 9 9 17 22 17 29 0 6 8 18 17 25 10 7 19 19 21 27 1 7 9 20 17 28 8 8
18 25 21 39 3 13 9 24 13 24 3 0 18 21 31 48 14 26 28 48 32 50 4 2 4 10 1 18
-3 8 -1 14 3 14 5 0 18 20 29 45 11 25 24 45 29 45 5 0 7 3 3 6 -3 4 0 19 9
35 8 16 15 32 15 36 0 5 5 13 10 19 9 12 20 46 21 72 1 6 5 12 9 12 8 0 22 40
20 58 -1 6 2 12 7 12 9 0 21 42 24 88 1 12 5 22 9 22 7 0 21 52 23 87 1 12 4
25 9 29 4 4 7 19 7 34 0 15 3 30 8 34 4 4 8 21 8 37 1 16 2 30 4 32 7 9 21
131 24 212 2 39 6 77 10 86 4 9 5 68 2 130 -4 103 -7 149 -20 316 -2 28 -7 57
-12 64 -4 7 -9 29 -11 48 -5 65 -15 111 -23 111 -5 0 -7 8 -5 18 1 9 -1 24 -6
33 -4 8 -9 27 -11 42 -2 14 -7 29 -10 33 -4 3 -4 12 -1 20 3 8 1 14 -5 14 -8
0 -23 40 -27 75 0 6 -8 24 -16 41 -9 17 -15 38 -13 47 1 9 -2 17 -7 17 -5 0
-9 7 -9 15 0 8 -4 15 -9 15 -4 0 -8 8 -8 18 0 26 -14 62 -24 62 -5 0 -8 3 -7
8 1 4 -11 32 -27 62 -16 30 -30 57 -31 60 -1 3 -5 15 -9 28 -4 12 -12 22 -17
22 -5 0 -7 4 -4 9 3 5 -1 14 -9 21 -8 7 -15 19 -15 26 0 8 -4 14 -10 14 -5 0
-10 6 -10 14 0 8 -9 21 -20 29 -11 8 -17 17 -12 21 4 4 0 13 -8 20 -17 13 -36
41 -50 74 -5 12 -13 22 -17 22 -5 0 -14 14 -21 30 -8 17 -20 30 -27 30 -8 0
-17 9 -20 21 -4 11 -22 37 -40 57 -64 72 -195 210 -195 207 0 -1 -18 14 -41
35 -105 97 -119 110 -124 110 -3 0 -9 0 -15 0 -5 0 -10 6 -10 14 0 8 -8 17
-19 21 -10 3 -28 13 -39 23 -34 29 -66 51 -77 53 -5 1 -16 10 -23 21 -7 10
-17 16 -21 13 -5 -2 -16 4 -26 15 -10 11 -22 17 -26 14 -5 -3 -9 -1 -9 4 0 8
-26 20 -46 20 -3 1 -14 10 -24 22 -10 12 -22 22 -27 22 -24 3 -43 11 -43 19 0
5 -3 8 -7 7 -9 -2 -66 24 -73 33 -6 7 -62 23 -72 21 -5 -1 -8 2 -8 7 0 9 -38
24 -53 22 -5 -1 -21 8 -36 18 -16 11 -31 18 -34 14 -4 -3 -13 0 -22 7 -8 7
-24 10 -35 7 -13 -3 -20 0 -20 8 0 8 -8 12 -20 10 -11 -2 -20 0 -20 6 0 5 -13
9 -28 9 -16 0 -32 3 -36 7 -8 8 -27 13 -78 20 -21 3 -38 8 -38 12 0 4 -15 6
-32 6 -18 -1 -37 1 -43 5 -12 9 -81 20 -145 24 -25 2 -56 8 -69 13 -14 5 -42
7 -63 3 -21 -4 -41 -4 -44 1 -2 4 -15 5 -27 1 -12 -4 -33 -7 -47 -5 -14 1 -41
2 -60 2 -19 1 -44 1 -55 1 -11 1 -26 1 -32 1 -109 -3 -153 -2 -160 2 -4 3 -13
-1 -20 -8z"/>
</g>
</svg>
